<?xml version="1.0" standalone="no"?>
<!DOCTYPE svg PUBLIC "-//W3C//DTD SVG 20010904//EN"
 "http://www.w3.org/TR/2001/REC-SVG-20010904/DTD/svg10.dtd">
<svg version="1.0" xmlns="http://www.w3.org/2000/svg"
 width="700.000000pt" height="700.000000pt" viewBox="0 0 700.000000 700.000000"
 preserveAspectRatio="xMidYMid meet">
<metadata>
Created by potrace 1.14, written by Peter Selinger 2001-2017
</metadata>
<g transform="translate(0.000000,700.000000) scale(0.100000,-0.100000)"
fill="#000000" stroke="none">
<path d="M3280 6994 c-19 -2 -84 -9 -145 -14 -578 -56 -1180 -283 -1660 -625
-237 -169 -531 -446 -709 -670 -416 -521 -673 -1147 -748 -1820 -17 -155 -17
-575 0 -730 52 -469 198 -931 418 -1327 290 -523 731 -983 1239 -1294 439
-269 920 -432 1460 -496 145 -17 576 -17 730 0 822 91 1556 447 2131 1034 203
206 348 390 487 618 274 449 433 916 499 1465 16 136 16 592 0 730 -86 725
-352 1347 -803 1885 -122 145 -351 370 -494 484 -510 407 -1117 661 -1775 742
-117 15 -553 27 -630 18z m-1350 -2534 l0 -320 -325 0 -325 0 0 320 0 320 325
0 325 0 0 -320z m3790 0 l0 -320 -1740 0 -1740 0 0 320 0 320 1740 0 1740 0 0
-320z m-3790 -960 l0 -320 -325 0 -325 0 0 320 0 320 325 0 325 0 0 -320z
m2050 0 l0 -320 -870 0 -870 0 0 320 0 320 870 0 870 0 0 -320z m-2050 -960
l0 -320 -325 0 -325 0 0 320 0 320 325 0 325 0 0 -320z m1180 0 l0 -320 -428
0 -429 0 -6 113 c-4 61 -7 205 -7 320 l0 207 435 0 435 0 0 -320z"/>
</g>
</svg>
